<mxfile host="65bd71144e">
    <diagram id="Lu83tjWo-Wz-DkkKe9Yt" name="第 1 页">
        <mxGraphModel dx="1411" dy="898" grid="0" gridSize="10" guides="1" tooltips="1" connect="1" arrows="1" fold="1" page="0" pageScale="1" pageWidth="850" pageHeight="1100" math="0" shadow="0">
            <root>
                <mxCell id="0"/>
                <mxCell id="1" parent="0"/>
                <mxCell id="2" value="" style="shape=image;verticalLabelPosition=bottom;labelBackgroundColor=default;verticalAlign=top;aspect=fixed;imageAspect=0;image=data:image/png,iVBORw0KGgoAAAANSUhEUgAAAqEAAAAiCAYAAABvGQABAAAQ4UlEQVR4nO2dbWxU15nHf60qb9A449gaMLvYGmfsEgj1EOzVZhXMpLQgiEaNZSGKeK2rTYiqfdEODqoinH5oiKqIYK/2RdomWdUlECtFsxaprA0yiHQw1aaqebGX0LJmYndMhGEWxxOPSP2l++HemblvntfrGWM/P8mSfXzmnHOfOXPP/57zPM98xe12/wlBEARBEARBKCJfLfUABEEQBEEQhKWHiFBBEARBEASh6IgIFQRBEARBEIqOiFBBEARBEASh6IgIFQRBEARBEIqOiFBBEARBEASh6IgIFQRBEARBEIqOiFBBEARBEASh6Hyt1AOwlzeoObELl7Zo/H2uvvpDXa2ywDBPbnDCF7/mk7/dw2xRx5gD3uOs3+YBwtw61sFMjq+Lnm3j9nC6ij5cBwOsYogbbx1N2qF8Zx/1dZpqY2e4dronjwsQ8uFba07zytpyTckMvzm3kyNfWNWu5fihFjzEGDrVz9HJNA03ttC3tRaIcKZrEHlHH3IS72dsmO53rhMqcve+zX4CG5wwPkhbMFKUPtt37KbVvQDm7xK0vWCBOg/CA710jKhl1es4udeLI1kpi3vzPI4t7Rz9i39l4Ol6XdHox8/xg8+KMkJgUYlQVYAudGH5EDBzuo1rALSz6nCrXtQLRSKd8NQyzVQMcBZhSEasbsBLBlX8l1IE3J0iTq1msSsuoeg0gZJMvPnASecLfprJUlSK7YuKIrqxFHML5sEkweR19nVdB1LjLgnZzNHP/o6tfervFoK0GCweEbqnGRcQvZRZgM52e7lajDEVynAH19LuZApCgmkmMj1pjwzStuTE4hJgKlb0nTgt8fvTJey9xIjthYVOiedoJhaNT2hZ9QogxpfjpR6JIBSTGBNTpR6DUBImYxT7hE/H3Snipey/lIjthYVOqedolti4E/oirn87Qs2jqZL4ldf53+63DfXMfpumehvf4+svPcODD+u4W636bwIQY+KnXqKX8hth+WtjNLg1BRb+ounGmd3rLFjZScP+NXz+7lvwfIBVFRC/3M3ovVbV5zPO7Xf3Eb2jVC/79knWNmk20af1Ppsmkr6jmVB9QCsMxQU9TJuP7HW+qCs7adjfzIO5/FMt/2/hBmDhl1q+s4/6yiFuvBXCqbsuKx9a87XHL3czen4hPyNmR0+wN+0xVNJ/LMEcPkJKvWnOdA1T84KfZqdV/YQPagrP1t30bU39Hb/Sz74LMU0N9ajTma6OeqxWOUz3OxF8uvpzHbVl167VmE0uBKof1+RAL2dcWnvp/bmUoz/N69wt9B3S/G1l26QvbrKS+VhR038H+vrW1wQQoaOr16K8SGiOHS1pbKFvawVDp/oJPamfg1YuHKZ5mtZ32fDez+UWkcH25j69BA55CWQcwwK3PZDVvE/YcWqQtiD6+sa5nOscnbd5nx2mz6rFe5m658Ro1V571vOpcLK6Py+U+0P7mwS/8zjx3/4TB35y0ZYm7RGhqmh0fPFrPjmQOg4vf20Y18a3U6Jxzzme2t5A/MrrXE2Izj3neGr7EZ56rcEk7FzbxxQfT7XN8tfGaHjpHF9e2sIMmgAjDTUvjVHzUuIvvWidebVOPYZPIzC116MRm4m+rIV1NjhYtT9A9GwbN5afZG39QRqaJrl1rJtHDgZYtamdqCqyZs/v49p5SAUOzY0SRBTm1rG2lOiyEqWq2ONyN9eSwitz+2lR23RoBaL3OOu39bFsuV7gLVvuA6tDgRWVOIAHyYJ2Vh1uZPpYG7d119PK+p2YA6Qqmll7uJl48roUAVt/sFMj3FVROz3EjWNq2cpOGvYHWF/lWfRBV6EL/YQuQMrvLR21tB6qJX6ln7YLMRILWWBHjFAwgu7GlpVPqLoQxobp7lJvrNXrOLnXT1+VxY3eqYgAY/+tL6wjbLEgOrTtAu07/HRWaxa6RD3totLYQt/W3Zx0mW/enq27CWjabN+xm9a9fjrVxTMl+LPzCVUWwhhDp3r1Qnbvbo5b2M2zdTd9RDjTpfSjLFB+jkcfVr9bJ817d9NstOlWP513E+9TQlBGONPVr9pXKWs95KfGKFxiFWw55GdyoFdxL6lex8m9LfTt0L8X2dje/NkoTaCR7eQ47xMPU2GdTb2az32KbOZoqed9+47dNN7spS2YKFHvI4dawPhQ4fQSMF17Cyc36+2U8j3VPPQXKErNdlLmYeBQJR6Lh5/S3h82ceTZxwFwrPaxiYvYIUNtOY4v3/4MDkYZNQQEzbyq3bV8EdfGBhh/Xy/i3tvCJ1di4H4O10ZDw4Ygo5kbo0ADj+1R/p7t9nL1QB1XD9QpbRBj4qd1ybKrB/LbNS37q2/gIMbEhylRPNv9X0QBR1VD7g0mmB7iXmK3r8LBg7Oa3brKGspybc97nPo6iJ7NFDnvw/V8M47pIf5g485f+SalzRtaETfcwa0xcNT7lOu5M6ERmCji73Afq7zawjh/vJv4vYfbxl1Mtc25bBQ926YRvD1MjwEVlcm6Zd/egoswt7S7yXeO8ofLcahrpNzUYma++aNf0N/fP/fPv/xNHq0uDPRP1hFGxgG3m/Y82vJt9uIhwhntwj55nbeuxOZsMzzQa+7fWanb0Wlv8eIwtgv0BPWCpb1FFarahXRkkDPj4KivxWfs3LAL0RMcJIyTNU/mEQRSvY4tbggP6MfUE+xnKAaep9dZ969ZfEKfjBEHql0PcRDK+CBtWpvejABOKleoBY1emp0xhk5pF90YR99RbN/cYljknU5lRyix6FrNp3xsv4jIed6jCKGUTSP8LgZUOnOfo/M275UHmr5D+h/9bmeiL6Moi9AxEAEqqKk219c9SKvXrrNTYwutbggP2Bj8ZGmnGEd/OUycWhobLV5T0vvDRUI3FSeQ+M2QLQIUbNkJfYPH3BC/8n56IbRxM5WPQvSS+Rh79jf/Q3zDMzziBjSiMT56YVFFucdvhZgFVRxphVd+lC2vBsJMZwxe8vBnFRC/HLLRnu1U1Fm3OXs/DnVrcK6E6J0wf5wGV5UHCFG2bg0OwPFEO7eHe9RrmOTLO1l0qQpLfX/m609F9wP4cNY7YGzEND9n700CHiq8MJNjANhHP/4uH+X2koeEGL/7JP8jMD1OfPVOGB823biV6F71RmtYLEYMT/Rmd4NaGt0Qv2JuF8t6EdPOVvh+DNx1+KqvE9IslPFbxrpK9gFPVQWQm118T9bhsLgeiBG6FaN5gyKstf2Z+s/q2HVhE75p2Ck2BMi1r1bSyIRMDmzKA4hHFUIhbbnBpsp8UgXGZH62XzzkPu+JjRnsH+PoO9ZHuZnm6PzNe+tUR+Zj93SoDz+6NqzGqsfnqsiqXi7MaSfVl9OzuhZG9J+dUt8fLv7kgG3iM0HhInRjLcuyqedeYTh2NbOs+kUgn6Nue0mI4prtbyRFc1ngOSX6/kYOvqDzTFlVlglCVtZk9x7lgtqmoynA+qaARYWE23yIL6cCyV3MsioH0ctDLGtSdyCrHDA9pReWWfu4ZoMiwKloZf3hVpvaFLKjgkon4DT4TRZKtROLzYw56zk2+OmzTJOSg6g0CaHMeKqcpHe4TommpYuTmspMVbIVjCmBsaRtb+e8z4OFYXuzP2whZL6mfNt00npoN0t5ZSpeiqbxu8SZ4yhbFajRydILUCA5Hty7eOrELrVQOerPNyhq0XFnggcoPqaZgnuUndFKyminoi7M9OkJaGqmwqt+rKcmkiI0EZRlDBoyJdDPGmUnlil7E+5/80e/4PDTaR4Cwv+J/+//w7b+Hk7UHKZTJcqlqe4oVBcU4KAK6fHc05wou07W/1MWoEjmtFqLHiW7Q7OlEFUFamyKcIZWlJ2qGFPq6dKStr0t8z5/Sm57rb+41l1nHoKKCkGx0/TCyW9aIgr3Cb10gakvwNGwOb1P46UIDwDX2jdM/1LSK43y+XsFj8YWytc2KP6oB7L3L930ygmCwSDBnx1hU5HGOXs/DlTzyEptqQ/XXxue/1S/TEeVodzbao6UzxpF3CV9P9ON8556x/E24hobYUb123Q90ckjlRC/n1pilN3dMHds810N8eUUeft+zsVHP/4ufr9/7p8lL0AhmT4qT3/SObHy2bJEEcGZ66VB3VUyHSlnQSg6DZa+Xaq4Gh8v0uLzPd4MBgkGg7xp6xthD+H7MXDW4TNtbysPAGYXCTOeKqfuSHlp296GeV8AJbe9Guwa/ti+ALPw/Rhmf1InnU/nL2rnttMCpv1N23WODYFJbxO9NAqPPsOTr+kFphIdn/jrh9y9EgP3Lr4eeDFVac85Neo8g09psXl0RQ6BQpvwrVZ3xZxP4Ht2nsZkYPb8OaI4WLUpcXdTot0fmwobcsj1cO9yHOq24EoIVu9x1m+D6Fi+vYeI/ndYiU7fmeHueneKOB7qt3mSgnPm92Goa2ZVBTy4Z7xVKH6aqWvKdxdUYebikNL/wc7cg7+EuRkZJ0z6II+eQcXJvvUFOwNBYhz9OKJEte7QLwJKdHzmetlRy3F1R+WMyRcsEbDl1fRnYGRYCcTY6tfVad/hVwJxBou0O/xsDYkYoMefLd5DcraELgwrAUh7WzQPK046X2jBQ4RzGXbzfJv9StCIVnTkbHvFXxGnl1Y7RUFJbF/ovC+QBTLvPatT1+7b7C9oFzQ5R5NBckoU+5qpSP75Wuew00Lme99QouNxNtFq00OVPcfx723h6ntK2qPU8TVEP6xjQrN7ONvt5WoiJdOJI2ppsY65LdIyaY7btamXZl59n+iJXTScsFBoljlCLxK6+SJNf+mA2O8J/aqQcVrl8mxm7WH1u7V0+TJ7uP1uDcv2p/wdo2fbGL3bSYNBtM2e38etqj7q9/cpKZnUdEVlO/sMqaoscnTWpdrXHZMPd3BtWKlv8rfUjlM9uncQ5/PrideOEN3mwWUI0Jo53c3tgwFWbevDtY3kNd1YfpK1TZmtZ8mdo4weU+yatGOCTDlYH3rMuTR1uRAL+trJCB1dg0oKJ01uRV10/eR19nVF1LQj2vyLFPa92yODtI0ofl9af9PwQC8dk5nrAZbXbvSjS6WKMtMT7AU17UxyVumuSQnuaLeq01XENEC/ep3z3wny/OPF6jBXInR09aspmTT+ceODtL2jf396bkZoddca/Oi0qZ0S5G770IV+wE9Al/e2wK+DLJXtc5z39lLieT8ySLfLT2CD5trHB2k75eTkXm/al85NhI5Tw0oqMLXN8EAv++6u46RbL27NuWdRovrVdlLzSbGTb7OfgNZO6v9K8n3zGfj5yx/QGHyex4EVf74JbAhT+orb7f5Twa0sKhJJ90cZPbBFvzur5jnNOVm9IOTAt9ac5pW1ZPnd8YItqH5klMiPbt5Rk0zz6QfsePnnpR7N0kJsLzwMqN8dP/rxc/zgs7kqbeLIz/6RJmecy/98gNcL2nBTWDzfHW8XaiopxofM7gFqcFWWMelJGgPv89WvyUHwQub/rp5lYuDfSz0MQZgHEkmmP+UDEUFFRmwvLCLaW2lyAp+et0WAgohQM5ciPHgJHO5mykEnRJWk/LmnaRrp3pW5kiAIgq0kdi1QduG+LyKoeIjthUXEs0c48Q9NOIBPf7mDl22MLJPjeEsSR/LGcosjekGwGeU4XhvLPyNH8/PNYj+OFwRBMKIewWtJfxxvPyJCBUEQBEEQhKJjy3fHC4IgCIIgCEIuiAgVBEEQBEEQio6IUEEQBEEQBKHoiAgVBEEQBEEQio6IUEEQBEEQBKHoiAgVBEEQBEEQio6IUEEQBEEQBKHo/D+t9MzSofiywgAAAABJRU5ErkJggg==;movable=0;resizable=0;rotatable=0;deletable=0;editable=0;connectable=0;" parent="1" vertex="1">
                    <mxGeometry x="-255.0021875" y="22.00331298828125" width="673" height="34" as="geometry"/>
                </mxCell>
                <mxCell id="3" value="" style="shape=image;verticalLabelPosition=bottom;labelBackgroundColor=default;verticalAlign=top;aspect=fixed;imageAspect=0;image=data:image/png,iVBORw0KGgoAAAANSUhEUgAAAHcAAAAnCAYAAAA1t9d9AAADtUlEQVR4nO2bP0wbSRSHv0SRE7S2L5I5yRIFGzmxhK5w4SZpXLrZ1JRQUIKE0iQVFRU0EVIoKaB078alU4RmCwqE5BhlGyQX61NYYyW4uSt2Hcb71whvfDear0KjWebN+715894gHi0vL/+DQkoez9sARXoocSVGiSsxSlyJUeJKjBJXYpS4EqPElRglrsQocSVGiSsxSlyJUeJKjBJXYp7M24D/NLU1Xm5V0X4NOFx92sFuB6dm9w8o6cKA1eTsfSt9G2OYWtyA8Vhcrn7kZvY2+SizeLTJEiYXGyeMUl9PoH1Ct30CQObDLivV6Kk377c5A6DOUsNg8XfYl8AU4o6N9YlZW+Plfp3unKNTEU2CuGUWj0KEBS+q0zRN8VDixa295nkOhmZzyvTrpdCcMBS4e9xMsGAe0u0ZVIy7XG83t7k6dn9202Be+K7KSkPMi5MBl90/oFQwudg4JT9hQ/j1Efz9v+uagbDULe59zH335CdW3MybV2iA3esk2zsuPqwmZxstYcygclQM3JdadZMKFper29zgOdvY5fabW7CM9na8O+wed27ODYChecjZXoexE0tHa8K34wC0uFzd8RzkjpUau5EF08wQ/TQO+vV3VIwDFoqHdPd8vp5qT+HEtkKZQh5wuP2WbHP2bRVtYHIhntL2Cd2mBbkqf677v5iMvtGXrwzJ8/xNOXmxGOzmtuCgFtcWkCuQGU9YN1jKOVx9EiO/g73RxCbP0tv6g9ZPItRPxx+5tEArv76zUyBxTxHMqBWq84cOQ/M0GEnH59iGzkKxDAhRaZ2nkAItrn2p7a6Kdcn+pcPAxAmczhbXlsFioUgGUqrKo/006jugvyJfw5c5kvcURay47oJ5nr4A4lJVrchCwkJaQWdC3LlQ5lkhYYp3IlIR1/OTVt2k0gib4Mx0uXhxe38D+eCp89Pu8WOLcIG9DQ371gPMnBUdfvaBUIE94Qf99Hppz0+YIXdrCsQ/Px6fYwNa1SAbO9HidhBxZ7wooOHw/cu8T63LqO9Azk1/k+g8zcGwE3K1zIwYP6VAwttyi6umBeiUGu8mBfYeMVw62G23cFrZr0/OMXSwPj+gAu3gdJyIouz+jPY+u4XTlrifu36+l+qJivBTSjya7t9JQvrXQUhrEniLDevfvB7P3/9630alrKS+1H0enbZXnaYfD1tTRFwr/slxGNhTxHyfDffbU5ApxVX8H1F/8pMYJa7EKHElRokrMUpciVHiSowSV2KUuBKjxJUYJa7E/AvJnph7Vx8PjgAAAABJRU5ErkJggg==;movable=0;resizable=0;rotatable=0;deletable=0;editable=0;connectable=0;" parent="1" vertex="1">
                    <mxGeometry x="493.9978125" y="94.00331298828125" width="119" height="39" as="geometry"/>
                </mxCell>
                <mxCell id="4" value="" style="shape=image;verticalLabelPosition=bottom;labelBackgroundColor=default;verticalAlign=top;aspect=fixed;imageAspect=0;image=data:image/png,iVBORw0KGgoAAAANSUhEUgAAAqEAAAAiCAYAAABvGQABAAAQ4UlEQVR4nO2dbWxU15nHf60qb9A449gaMLvYGmfsEgj1EOzVZhXMpLQgiEaNZSGKeK2rTYiqfdEODqoinH5oiKqIYK/2RdomWdUlECtFsxaprA0yiHQw1aaqebGX0LJmYndMhGEWxxOPSP2l++HemblvntfrGWM/P8mSfXzmnHOfOXPP/57zPM98xe12/wlBEARBEARBKCJfLfUABEEQBEEQhKWHiFBBEARBEASh6IgIFQRBEARBEIqOiFBBEARBEASh6IgIFQRBEARBEIqOiFBBEARBEASh6IgIFQRBEARBEIqOiFBBEARBEASh6Hyt1AOwlzeoObELl7Zo/H2uvvpDXa2ywDBPbnDCF7/mk7/dw2xRx5gD3uOs3+YBwtw61sFMjq+Lnm3j9nC6ij5cBwOsYogbbx1N2qF8Zx/1dZpqY2e4dronjwsQ8uFba07zytpyTckMvzm3kyNfWNWu5fihFjzEGDrVz9HJNA03ttC3tRaIcKZrEHlHH3IS72dsmO53rhMqcve+zX4CG5wwPkhbMFKUPtt37KbVvQDm7xK0vWCBOg/CA710jKhl1es4udeLI1kpi3vzPI4t7Rz9i39l4Ol6XdHox8/xg8+KMkJgUYlQVYAudGH5EDBzuo1rALSz6nCrXtQLRSKd8NQyzVQMcBZhSEasbsBLBlX8l1IE3J0iTq1msSsuoeg0gZJMvPnASecLfprJUlSK7YuKIrqxFHML5sEkweR19nVdB1LjLgnZzNHP/o6tfervFoK0GCweEbqnGRcQvZRZgM52e7lajDEVynAH19LuZApCgmkmMj1pjwzStuTE4hJgKlb0nTgt8fvTJey9xIjthYVOiedoJhaNT2hZ9QogxpfjpR6JIBSTGBNTpR6DUBImYxT7hE/H3Snipey/lIjthYVOqedolti4E/oirn87Qs2jqZL4ldf53+63DfXMfpumehvf4+svPcODD+u4W636bwIQY+KnXqKX8hth+WtjNLg1BRb+ounGmd3rLFjZScP+NXz+7lvwfIBVFRC/3M3ovVbV5zPO7Xf3Eb2jVC/79knWNmk20af1Ppsmkr6jmVB9QCsMxQU9TJuP7HW+qCs7adjfzIO5/FMt/2/hBmDhl1q+s4/6yiFuvBXCqbsuKx9a87XHL3czen4hPyNmR0+wN+0xVNJ/LMEcPkJKvWnOdA1T84KfZqdV/YQPagrP1t30bU39Hb/Sz74LMU0N9ajTma6OeqxWOUz3OxF8uvpzHbVl167VmE0uBKof1+RAL2dcWnvp/bmUoz/N69wt9B3S/G1l26QvbrKS+VhR038H+vrW1wQQoaOr16K8SGiOHS1pbKFvawVDp/oJPamfg1YuHKZ5mtZ32fDez+UWkcH25j69BA55CWQcwwK3PZDVvE/YcWqQtiD6+sa5nOscnbd5nx2mz6rFe5m658Ro1V571vOpcLK6Py+U+0P7mwS/8zjx3/4TB35y0ZYm7RGhqmh0fPFrPjmQOg4vf20Y18a3U6Jxzzme2t5A/MrrXE2Izj3neGr7EZ56rcEk7FzbxxQfT7XN8tfGaHjpHF9e2sIMmgAjDTUvjVHzUuIvvWidebVOPYZPIzC116MRm4m+rIV1NjhYtT9A9GwbN5afZG39QRqaJrl1rJtHDgZYtamdqCqyZs/v49p5SAUOzY0SRBTm1rG2lOiyEqWq2ONyN9eSwitz+2lR23RoBaL3OOu39bFsuV7gLVvuA6tDgRWVOIAHyYJ2Vh1uZPpYG7d119PK+p2YA6Qqmll7uJl48roUAVt/sFMj3FVROz3EjWNq2cpOGvYHWF/lWfRBV6EL/YQuQMrvLR21tB6qJX6ln7YLMRILWWBHjFAwgu7GlpVPqLoQxobp7lJvrNXrOLnXT1+VxY3eqYgAY/+tL6wjbLEgOrTtAu07/HRWaxa6RD3totLYQt/W3Zx0mW/enq27CWjabN+xm9a9fjrVxTMl+LPzCVUWwhhDp3r1Qnbvbo5b2M2zdTd9RDjTpfSjLFB+jkcfVr9bJ817d9NstOlWP513E+9TQlBGONPVr9pXKWs95KfGKFxiFWw55GdyoFdxL6lex8m9LfTt0L8X2dje/NkoTaCR7eQ47xMPU2GdTb2az32KbOZoqed9+47dNN7spS2YKFHvI4dawPhQ4fQSMF17Cyc36+2U8j3VPPQXKErNdlLmYeBQJR6Lh5/S3h82ceTZxwFwrPaxiYvYIUNtOY4v3/4MDkYZNQQEzbyq3bV8EdfGBhh/Xy/i3tvCJ1di4H4O10ZDw4Ygo5kbo0ADj+1R/p7t9nL1QB1XD9QpbRBj4qd1ybKrB/LbNS37q2/gIMbEhylRPNv9X0QBR1VD7g0mmB7iXmK3r8LBg7Oa3brKGspybc97nPo6iJ7NFDnvw/V8M47pIf5g485f+SalzRtaETfcwa0xcNT7lOu5M6ERmCji73Afq7zawjh/vJv4vYfbxl1Mtc25bBQ926YRvD1MjwEVlcm6Zd/egoswt7S7yXeO8ofLcahrpNzUYma++aNf0N/fP/fPv/xNHq0uDPRP1hFGxgG3m/Y82vJt9uIhwhntwj55nbeuxOZsMzzQa+7fWanb0Wlv8eIwtgv0BPWCpb1FFarahXRkkDPj4KivxWfs3LAL0RMcJIyTNU/mEQRSvY4tbggP6MfUE+xnKAaep9dZ969ZfEKfjBEHql0PcRDK+CBtWpvejABOKleoBY1emp0xhk5pF90YR99RbN/cYljknU5lRyix6FrNp3xsv4jIed6jCKGUTSP8LgZUOnOfo/M275UHmr5D+h/9bmeiL6Moi9AxEAEqqKk219c9SKvXrrNTYwutbggP2Bj8ZGmnGEd/OUycWhobLV5T0vvDRUI3FSeQ+M2QLQIUbNkJfYPH3BC/8n56IbRxM5WPQvSS+Rh79jf/Q3zDMzziBjSiMT56YVFFucdvhZgFVRxphVd+lC2vBsJMZwxe8vBnFRC/HLLRnu1U1Fm3OXs/DnVrcK6E6J0wf5wGV5UHCFG2bg0OwPFEO7eHe9RrmOTLO1l0qQpLfX/m609F9wP4cNY7YGzEND9n700CHiq8MJNjANhHP/4uH+X2koeEGL/7JP8jMD1OfPVOGB823biV6F71RmtYLEYMT/Rmd4NaGt0Qv2JuF8t6EdPOVvh+DNx1+KqvE9IslPFbxrpK9gFPVQWQm118T9bhsLgeiBG6FaN5gyKstf2Z+s/q2HVhE75p2Ck2BMi1r1bSyIRMDmzKA4hHFUIhbbnBpsp8UgXGZH62XzzkPu+JjRnsH+PoO9ZHuZnm6PzNe+tUR+Zj93SoDz+6NqzGqsfnqsiqXi7MaSfVl9OzuhZG9J+dUt8fLv7kgG3iM0HhInRjLcuyqedeYTh2NbOs+kUgn6Nue0mI4prtbyRFc1ngOSX6/kYOvqDzTFlVlglCVtZk9x7lgtqmoynA+qaARYWE23yIL6cCyV3MsioH0ctDLGtSdyCrHDA9pReWWfu4ZoMiwKloZf3hVpvaFLKjgkon4DT4TRZKtROLzYw56zk2+OmzTJOSg6g0CaHMeKqcpHe4TommpYuTmspMVbIVjCmBsaRtb+e8z4OFYXuzP2whZL6mfNt00npoN0t5ZSpeiqbxu8SZ4yhbFajRydILUCA5Hty7eOrELrVQOerPNyhq0XFnggcoPqaZgnuUndFKyminoi7M9OkJaGqmwqt+rKcmkiI0EZRlDBoyJdDPGmUnlil7E+5/80e/4PDTaR4Cwv+J/+//w7b+Hk7UHKZTJcqlqe4oVBcU4KAK6fHc05wou07W/1MWoEjmtFqLHiW7Q7OlEFUFamyKcIZWlJ2qGFPq6dKStr0t8z5/Sm57rb+41l1nHoKKCkGx0/TCyW9aIgr3Cb10gakvwNGwOb1P46UIDwDX2jdM/1LSK43y+XsFj8YWytc2KP6oB7L3L930ygmCwSDBnx1hU5HGOXs/DlTzyEptqQ/XXxue/1S/TEeVodzbao6UzxpF3CV9P9ON8556x/E24hobYUb123Q90ckjlRC/n1pilN3dMHds810N8eUUeft+zsVHP/4ufr9/7p8lL0AhmT4qT3/SObHy2bJEEcGZ66VB3VUyHSlnQSg6DZa+Xaq4Gh8v0uLzPd4MBgkGg7xp6xthD+H7MXDW4TNtbysPAGYXCTOeKqfuSHlp296GeV8AJbe9Guwa/ti+ALPw/Rhmf1InnU/nL2rnttMCpv1N23WODYFJbxO9NAqPPsOTr+kFphIdn/jrh9y9EgP3Lr4eeDFVac85Neo8g09psXl0RQ6BQpvwrVZ3xZxP4Ht2nsZkYPb8OaI4WLUpcXdTot0fmwobcsj1cO9yHOq24EoIVu9x1m+D6Fi+vYeI/ndYiU7fmeHueneKOB7qt3mSgnPm92Goa2ZVBTy4Z7xVKH6aqWvKdxdUYebikNL/wc7cg7+EuRkZJ0z6II+eQcXJvvUFOwNBYhz9OKJEte7QLwJKdHzmetlRy3F1R+WMyRcsEbDl1fRnYGRYCcTY6tfVad/hVwJxBou0O/xsDYkYoMefLd5DcraELgwrAUh7WzQPK046X2jBQ4RzGXbzfJv9StCIVnTkbHvFXxGnl1Y7RUFJbF/ovC+QBTLvPatT1+7b7C9oFzQ5R5NBckoU+5qpSP75Wuew00Lme99QouNxNtFq00OVPcfx723h6ntK2qPU8TVEP6xjQrN7ONvt5WoiJdOJI2ppsY65LdIyaY7btamXZl59n+iJXTScsFBoljlCLxK6+SJNf+mA2O8J/aqQcVrl8mxm7WH1u7V0+TJ7uP1uDcv2p/wdo2fbGL3bSYNBtM2e38etqj7q9/cpKZnUdEVlO/sMqaoscnTWpdrXHZMPd3BtWKlv8rfUjlM9uncQ5/PrideOEN3mwWUI0Jo53c3tgwFWbevDtY3kNd1YfpK1TZmtZ8mdo4weU+yatGOCTDlYH3rMuTR1uRAL+trJCB1dg0oKJ01uRV10/eR19nVF1LQj2vyLFPa92yODtI0ofl9af9PwQC8dk5nrAZbXbvSjS6WKMtMT7AU17UxyVumuSQnuaLeq01XENEC/ep3z3wny/OPF6jBXInR09aspmTT+ceODtL2jf396bkZoddca/Oi0qZ0S5G770IV+wE9Al/e2wK+DLJXtc5z39lLieT8ySLfLT2CD5trHB2k75eTkXm/al85NhI5Tw0oqMLXN8EAv++6u46RbL27NuWdRovrVdlLzSbGTb7OfgNZO6v9K8n3zGfj5yx/QGHyex4EVf74JbAhT+orb7f5Twa0sKhJJ90cZPbBFvzur5jnNOVm9IOTAt9ac5pW1ZPnd8YItqH5klMiPbt5Rk0zz6QfsePnnpR7N0kJsLzwMqN8dP/rxc/zgs7kqbeLIz/6RJmecy/98gNcL2nBTWDzfHW8XaiopxofM7gFqcFWWMelJGgPv89WvyUHwQub/rp5lYuDfSz0MQZgHEkmmP+UDEUFFRmwvLCLaW2lyAp+et0WAgohQM5ciPHgJHO5mykEnRJWk/LmnaRrp3pW5kiAIgq0kdi1QduG+LyKoeIjthUXEs0c48Q9NOIBPf7mDl22MLJPjeEsSR/LGcosjekGwGeU4XhvLPyNH8/PNYj+OFwRBMKIewWtJfxxvPyJCBUEQBEEQhKJjy3fHC4IgCIIgCEIuiAgVBEEQBEEQio6IUEEQBEEQBKHoiAgVBEEQBEEQio6IUEEQBEEQBKHoiAgVBEEQBEEQio6IUEEQBEEQBKHo/D+t9MzSofiywgAAAABJRU5ErkJggg==;movable=0;resizable=0;rotatable=0;deletable=0;editable=0;connectable=0;" parent="1" vertex="1">
                    <mxGeometry x="-252" y="190.00331298828124" width="673" height="34" as="geometry"/>
                </mxCell>
                <mxCell id="6" value="" style="endArrow=classic;html=1;movable=0;resizable=0;rotatable=0;deletable=0;editable=0;connectable=0;" parent="1" edge="1">
                    <mxGeometry width="50" height="50" relative="1" as="geometry">
                        <mxPoint x="444" y="39" as="sourcePoint"/>
                        <mxPoint x="547" y="78" as="targetPoint"/>
                        <Array as="points">
                            <mxPoint x="498" y="49"/>
                        </Array>
                    </mxGeometry>
                </mxCell>
                <mxCell id="7" value="" style="endArrow=classic;html=1;movable=0;resizable=0;rotatable=0;deletable=0;editable=0;connectable=0;" parent="1" edge="1">
                    <mxGeometry width="50" height="50" relative="1" as="geometry">
                        <mxPoint x="545" y="151" as="sourcePoint"/>
                        <mxPoint x="437" y="212" as="targetPoint"/>
                        <Array as="points">
                            <mxPoint x="504" y="191"/>
                        </Array>
                    </mxGeometry>
                </mxCell>
                <mxCell id="8" value="" style="shape=image;verticalLabelPosition=bottom;labelBackgroundColor=default;verticalAlign=top;aspect=fixed;imageAspect=0;image=data:image/png,iVBORw0KGgoAAAANSUhEUgAAAJUAAAAbCAYAAAB1GM3nAAAGEklEQVRoge2af0jUdxjHXzevNdKzozI2K07nWbRaao3JeZjEISTShNQtLiT3h6ksIsKW05AhKv1ixNhQ5x9lo8OtFEpEwY6oMLnBsh9jsbxNZem2rsnpaVT+2h93eufX7/3Sk9R9X3997/l8Ps/3gXvzfJ7P8/nKVCrVBBISAeSN1x2AxNJDEpVEwJFEJRFwJFEtMSZSHvAi65To2HhWN6M75j8G+fy/Yi5o+FyfR6wChn+pIqet/XUHtKCZSHnAy/hQ5I3HRUZPMR4Fo1HdQATyn+cvjqWRqTaXYsitpWLz6w4kcOjKSjAaS6hI9nFBuIHR+FCCTOVuBHMc+ZflLLPC6J7rjAcwViELPFO1c9ogZSfv5DD2cQJj1jssb67xMK+GoB93MX4wgVdZp3jre7GMNneWRqb6v7PjE0aUIL+tR+Ztbp8euWkQolIYC5+fcGSemp/7U2tJXe9q6aGpuoRLruMr7/Ot4Sva3K0XjHvzaWcfFbkpRLhYum8doOiR5zlCZleH6ag27ubt9mrSendjzFBNjZivHCO3UmRFWQlFGoXTMNBBxV4DxsnfyXquFsYRQg+Xdd9QNTVRTUVDLvErYai9mrSbHzrmuWdmDDmMHSlmhDssP+eDqADCDYwcTABTOcvcZrZEis8fYXtoF9fSC6j1xa8Dt9vf/tRatvxxAH3TpMX+J6bmloKrCBRKIkBEVBrWrZylT+ooqq6zP24uxbBTxUxmzpkpvNkTosnFSA+XdceowiGcjBIqzKUUtTrn5VWfIVNtw3TymMNuF0qRcRXRkwJqNZAGXC2MI7NBT6dDcLoyvVNQJ8yAmbRWA0y+TwOmk9PfNxM1E0oIMt3wTVAAfTd4w5rAyKZdyJtrxNdlp7E9FCCS97OBC74697D9XWoS/kF1FN3qAcJYF2a3dFufT1uzP7UWg/4oWlfjQN+U4HzxuXCYnlWMN80MoWBLkto5JVlPihrMV1z/eDNFlR0MoSIu38Vdq4Gv222wMo7DZWpI1nNYowBzi0NQsyR8AxOA7KmnWkpIDbJ/AeVa3G5TFx7SBUAXD/0QFMyqplqBco39qa3fglMQ+9iyHlBEow0DUKFUwLC1xy+fCwbzI5dtShxdkpoQeugQbomt//A3oI7VTTMbT5Ry2ezIgoVxhAx0UJFrZE68s5axWSyTPRsE1jLhtq6qpSA9nXQ/tz7wePrzXrPwzMowKocgwgmz3efeQAzRGzX234Cl37Wm8cHnIiI6TAEoyDSeIdPHNVW5LcQZd6PGhqnSpe5aQoiLKuwoNXtjCLYJinBhfWPpw0IMYas0aFdFQ89F2ogmVqVB+xjgOdZnfvpcRHRabKDuFxTfnsmrtgtqaEBBfOEh8lp9XyvKX08JQu19noCJNaGAGVnfXF4ujvj2t0ZJMNDdIX6qc9KD1QagQquCzsfttD3uZFgRjXajkmAs9Fr89bl4MPb2g7B28oCurIRMRw2W5qi7Mhv06LwvdU/fn8iA0ffEr2bEyWFiNWB96qG4T6T4fD319fWczfYvJI81VcS7+6aetdpKkYzSTu8ABG9NIVbhEJClnU7bCmK3qsBmpdtvn7Pg0a90AxFxgkPCfFPZgmkA1Bk+dL7zD9nbDuYWe0tAWLgLmDwYxGd4k5wZmRVYvcF90S0kfBfjSgj6zcOJMWknm0Ltj5FJxST66hsPfSqttpLPtq5wGp40o/8pnJq9MVhcju5T8540o2+qc2vzx6fnLfE59xryOW0R2mfWa3PpU6nNLehci2hHr4mp47/LCmGfCgCbsx2Qf8jR7/LSpxKeAqf6W05Ee2U7rvNijxp5o293evY7Qlj23TaCPGx/iV9c5MgHwYB/vSqPzU+JxYIfDVBH43Ps9x+8X9Nkn6V+TyR0XSO9wPczoHRNsySoIei2GZQJvHTz2Ysdxx0hZt70eu+XSHFSJDDM3Ub/mgpSplpCTH76EuTm+mU8q5tXUYNet70DZ+v5KBIYvMu5T8u57WccC/wrBQl/kDVvYzkPGBUdtX9PJW/0LCiA2oJ0vxue0+KQMpVEoJFqKomAI4lKIuBIopIIOJKoJALOfyoHZLRC/DGzAAAAAElFTkSuQmCC;movable=0;resizable=0;rotatable=0;deletable=0;editable=0;connectable=0;" parent="1" vertex="1">
                    <mxGeometry x="121.99781250000001" y="100.00331298828125" width="149" height="27" as="geometry"/>
                </mxCell>
                <mxCell id="9" value="&lt;span style=&quot;color: rgb(31, 35, 40); font-family: -apple-system, BlinkMacSystemFont, &amp;quot;Segoe UI&amp;quot;, &amp;quot;Noto Sans&amp;quot;, Helvetica, Arial, sans-serif, &amp;quot;Apple Color Emoji&amp;quot;, &amp;quot;Segoe UI Emoji&amp;quot;; font-size: 14px; font-style: normal; font-variant-ligatures: normal; font-variant-caps: normal; font-weight: 400; letter-spacing: normal; orphans: 2; text-align: start; text-indent: 0px; text-transform: none; widows: 2; word-spacing: 0px; -webkit-text-stroke-width: 0px; background-color: rgb(255, 255, 255); text-decoration-thickness: initial; text-decoration-style: initial; text-decoration-color: initial; float: none; display: inline !important;&quot;&gt;Controller 也只是洋葱模型里面最中间的那个 middleware 而已，没什么特殊的。&lt;/span&gt;" style="text;whiteSpace=wrap;html=1;movable=0;resizable=0;rotatable=0;deletable=0;editable=0;connectable=0;" vertex="1" parent="1">
                    <mxGeometry x="-11.998935546875003" y="-56.00334350585939" width="523" height="40" as="geometry"/>
                </mxCell>
            </root>
        </mxGraphModel>
    </diagram>
</mxfile>